HIERARCHY
ROOT joint_Root
{
	OFFSET 0.0 0.0 0.0
	CHANNELS 6 Xposition Yposition Zposition Zrotation Xrotation Yrotation 
	JOINT Hips
	{
		OFFSET -0.726466 93.3139 -2.00062
		CHANNELS 6 Xposition Yposition Zposition Zrotation Xrotation Yrotation 
		JOINT Spine
		{
			OFFSET 15.7357 0.0 0.0
			CHANNELS 6 Xposition Yposition Zposition Zrotation Xrotation Yrotation 
			JOINT Chest
			{
				OFFSET 8.98455 -0.406207 0.0
				CHANNELS 6 Xposition Yposition Zposition Zrotation Xrotation Yrotation 
				JOINT Neck
				{
					OFFSET 16.3773 0.0 0.0
					CHANNELS 6 Xposition Yposition Zposition Zrotation Xrotation Yrotation 
					JOINT Head
					{
						OFFSET 6.45672 0.0 0.0
						CHANNELS 6 Xposition Yposition Zposition Zrotation Xrotation Yrotation 
						End Site
						{
							OFFSET 0.0 0.0 0.0
						}
					}
				}
				JOINT Shoulder_L
				{
					OFFSET 12.9942 -0.242716 4.98039
					CHANNELS 6 Xposition Yposition Zposition Zrotation Xrotation Yrotation 
					JOINT UpperArm_L
					{
						OFFSET 5.34809 0.0 0.0
						CHANNELS 6 Xposition Yposition Zposition Zrotation Xrotation Yrotation 
						JOINT LowerArm_L
						{
							OFFSET 24.3286 1.87007e-05 0.0
							CHANNELS 6 Xposition Yposition Zposition Zrotation Xrotation Yrotation 
							JOINT Hand_L
							{
								OFFSET 22.2916 0.0 0.0
								CHANNELS 6 Xposition Yposition Zposition Zrotation Xrotation Yrotation 
								End Site
								{
									OFFSET 0.0 0.0 0.0
								}
							}
						}
					}
				}
				JOINT Shoulder_R
				{
					OFFSET 12.9945 -0.242716 -4.98039
					CHANNELS 6 Xposition Yposition Zposition Zrotation Xrotation Yrotation 
					JOINT UpperArm_R
					{
						OFFSET -5.34813 0.0 0.0
						CHANNELS 6 Xposition Yposition Zposition Zrotation Xrotation Yrotation 
						JOINT LowerArm_R
						{
							OFFSET -24.3289 0.000322201 0.0
							CHANNELS 6 Xposition Yposition Zposition Zrotation Xrotation Yrotation 
							JOINT Hand_R
							{
								OFFSET -22.2915 -0.000108084 0.0
								CHANNELS 6 Xposition Yposition Zposition Zrotation Xrotation Yrotation 
								End Site
								{
									OFFSET 0.0 0.0 0.0
								}
							}
						}
					}
				}
			}
		}
		JOINT UpperLeg_L
		{
			OFFSET -2.19248 -6.46944 0.0
			CHANNELS 6 Xposition Yposition Zposition Zrotation Xrotation Yrotation 
			JOINT LowerLeg_L
			{
				OFFSET 39.0811 0.0 -1.23785e-05
				CHANNELS 6 Xposition Yposition Zposition Zrotation Xrotation Yrotation 
				JOINT Foot_L
				{
					OFFSET 40.9854 0.0 -1.26872e-05
					CHANNELS 6 Xposition Yposition Zposition Zrotation Xrotation Yrotation 
					JOINT Toes_L
					{
						OFFSET 11.7543 0.0 0.0
						CHANNELS 6 Xposition Yposition Zposition Zrotation Xrotation Yrotation 
						End Site
						{
							OFFSET 0.0 0.0 0.0
						}
					}
				}
			}
		}
		JOINT UpperLeg_R
		{
			OFFSET -2.19251 6.46944 0.0
			CHANNELS 6 Xposition Yposition Zposition Zrotation Xrotation Yrotation 
			JOINT LowerLeg_R
			{
				OFFSET -39.0811 -0.00228153 -0.0401928
				CHANNELS 6 Xposition Yposition Zposition Zrotation Xrotation Yrotation 
				JOINT Foot_R
				{
					OFFSET -40.9854 0.0 0.0
					CHANNELS 6 Xposition Yposition Zposition Zrotation Xrotation Yrotation 
					JOINT Toes_R
					{
						OFFSET -11.7543 0.0 0.0
						CHANNELS 6 Xposition Yposition Zposition Zrotation Xrotation Yrotation 
						End Site
						{
							OFFSET 0.0 0.0 0.0
						}
					}
				}
			}
		}
	}
}
MOTION
Frames:	6
Frame Time:	0.0333333
0.000000 0.000000 0.000000 0.000000 0.000000 -0.000000 -0.350790 91.834300 3.076450 87.897400 -1.768960 3.970600 15.735700 0.000005 -0.000001 81.389100 85.594700 -80.905200 8.984550 -0.406207 -0.000000 0.951559 -1.347410 0.978301 16.377300 -0.000001 -0.000001 3.349270 -1.089090 0.032077 6.456720 -0.000001 -0.000000 6.306370 -0.121016 -0.729924 12.994200 -0.242716 4.980390 -89.879800 -0.350845 -71.092500 5.348090 -0.000007 -0.000001 -68.719200 34.342600 -13.079800 24.328600 0.000019 0.000005 2.788270 6.396440 -23.612800 22.291600 -0.000001 0.000005 3.332510 5.566320 -9.500500 12.994500 -0.242716 -4.980390 88.219700 5.313540 -71.445900 -5.348130 -0.000001 -0.000004 -67.386900 31.037200 -13.544700 -24.328900 0.000322 -0.000009 -1.497920 -4.181780 -19.714800 -22.291500 -0.000108 -0.000004 6.313630 5.545900 -8.514110 -2.192480 -6.469440 -0.000000 -169.130000 -18.221700 -1.312770 39.081100 -0.000007 -0.000012 -0.214684 0.502782 23.122500 40.985400 -0.000006 -0.000013 -6.780750 -1.890830 -65.532800 11.754300 -0.000000 0.000003 -0.000173 -0.001639 -16.639600 -2.192510 6.469440 -0.000001 172.426000 20.998200 -178.014000 -39.081100 -0.002282 -0.040193 -0.086468 0.270059 18.391600 -40.985400 0.000008 0.000006 -6.034150 3.436420 -63.493500 -11.754300 -0.000006 -0.000006 -0.002716 -0.037341 -18.091600
0.000000 0.000000 0.000000 0.000000 0.000000 -0.000000 -0.364388 91.848300 3.020300 87.865500 -1.751870 3.921610 15.735700 0.000005 -0.000001 81.488200 85.578400 -80.989700 8.984550 -0.406207 -0.000000 0.986099 -1.337860 1.007820 16.377300 -0.000001 -0.000001 3.121940 -1.086640 0.051595 6.456720 -0.000001 -0.000000 6.101150 -0.155983 -0.729609 12.994200 -0.242716 4.980390 -89.860100 -0.406316 -70.999900 5.348090 -0.000007 -0.000001 -68.325800 32.007300 -13.272000 24.328600 0.000019 0.000005 2.788170 6.342510 -23.789700 22.291600 -0.000001 0.000005 4.016110 5.573090 -9.846650 12.994500 -0.242716 -4.980390 88.274700 5.093550 -71.259000 -5.348130 -0.000001 -0.000004 -67.464600 28.334800 -13.525900 -24.328900 0.000322 -0.000009 -1.665340 -4.550560 -20.113700 -22.291500 -0.000108 -0.000004 7.484380 5.544620 -8.454470 -2.192480 -6.469440 -0.000000 -169.118000 -18.221500 -1.392780 39.081100 -0.000007 -0.000012 -0.212201 0.497909 23.083300 40.985400 -0.000006 -0.000013 -6.769630 -1.868200 -65.466400 11.754300 -0.000000 0.000003 -0.000151 -0.001463 -16.633200 -2.192510 6.469440 -0.000001 172.530000 21.003200 -178.104000 -39.081100 -0.002282 -0.040193 -0.083133 0.260375 18.368700 -40.985400 0.000008 0.000006 -5.916320 3.357750 -63.457800 -11.754300 -0.000006 -0.000006 -0.002619 -0.036215 -18.045800
0.000000 0.000000 0.000000 0.000000 0.000000 -0.000000 -0.367223 91.860600 2.969330 87.893800 -1.789080 3.911870 15.735700 0.000005 -0.000001 81.612600 85.572100 -81.125600 8.984550 -0.406207 -0.000000 1.001260 -1.319990 0.984901 16.377300 -0.000001 -0.000001 2.996390 -1.042520 0.021934 6.456720 -0.000001 -0.000000 5.788350 -0.110723 -0.663478 12.994200 -0.242716 4.980390 -89.809700 -0.542920 -70.680600 5.348090 -0.000007 -0.000001 -67.220200 28.971000 -13.991300 24.328600 0.000019 0.000005 2.869800 6.531660 -23.782200 22.291600 -0.000001 0.000005 5.419270 5.577590 -10.081600 12.994500 -0.242716 -4.980390 88.313500 4.866150 -70.858700 -5.348130 -0.000001 -0.000004 -66.830600 25.102600 -14.262200 -24.328900 0.000322 -0.000009 -1.821620 -5.027250 -19.937100 -22.291500 -0.000108 -0.000004 8.835950 5.540820 -8.281330 -2.192480 -6.469440 -0.000000 -169.156000 -18.260100 -1.388840 39.081100 -0.000007 -0.000012 -0.210677 0.496230 23.004200 40.985400 -0.000006 -0.000013 -6.762200 -1.894460 -65.398900 11.754300 -0.000000 0.000003 -0.000154 -0.001489 -16.634100 -2.192510 6.469440 -0.000001 172.529000 20.985500 -178.163000 -39.081100 -0.002282 -0.040193 -0.082239 0.257786 18.362000 -40.985400 0.000008 0.000006 -5.877430 3.365710 -63.415000 -11.754300 -0.000006 -0.000006 -0.002632 -0.036369 -18.052100
0.000000 0.000000 0.000000 0.000000 0.000000 -0.000000 -0.376771 91.878700 2.878840 87.857600 -1.763740 3.793540 15.735700 0.000005 -0.000001 81.165600 85.601100 -80.659700 8.984550 -0.406207 -0.000000 0.934042 -1.380780 1.022280 16.377300 -0.000001 -0.000001 3.002500 -0.997882 0.054307 6.456720 -0.000001 -0.000000 5.267340 -0.040502 -0.754946 12.994200 -0.242716 4.980390 -89.753000 -0.693454 -70.394700 5.348090 -0.000007 -0.000001 -65.463000 24.849800 -15.185800 24.328600 0.000019 0.000005 2.552100 5.932140 -23.328700 22.291600 -0.000001 0.000005 6.279290 5.581290 -10.281200 12.994500 -0.242716 -4.980390 88.381500 4.569830 -70.473300 -5.348130 -0.000001 -0.000004 -65.433700 21.217200 -15.750500 -24.328900 0.000322 -0.000009 -1.716290 -4.926810 -19.221800 -22.291500 -0.000108 -0.000004 9.736640 5.533600 -7.956240 -2.192480 -6.469440 -0.000000 -169.177000 -18.275000 -1.580580 39.081100 -0.000007 -0.000012 -0.208497 0.491791 22.975100 40.985400 -0.000006 -0.000013 -6.730590 -1.855920 -65.308100 11.754300 -0.000000 0.000003 -0.000174 -0.001648 -16.640000 -2.192510 6.469440 -0.000001 172.665000 21.024100 -178.345000 -39.081100 -0.002282 -0.040193 -0.078398 0.246614 18.334100 -40.985400 0.000008 0.000006 -5.721280 3.310540 -63.356400 -11.754300 -0.000006 -0.000006 -0.002736 -0.037584 -18.101500
0.000000 0.000000 0.000000 0.000000 0.000000 -0.000000 -0.378615 91.894900 2.785130 87.874500 -1.794690 3.729780 15.735700 0.000005 -0.000001 81.074600 85.623400 -80.572700 8.984550 -0.406207 -0.000000 0.887813 -1.387650 1.013730 16.377300 -0.000001 -0.000001 2.887820 -0.952109 0.046360 6.456720 -0.000001 -0.000000 4.955160 0.022295 -0.711411 12.994200 -0.242716 4.980390 -89.606500 -1.092450 -70.191200 5.348090 -0.000007 -0.000001 -63.291400 19.785200 -16.850600 24.328600 0.000019 0.000005 2.526860 6.049770 -22.720300 22.291600 -0.000001 0.000005 6.702970 5.580310 -10.228600 12.994500 -0.242716 -4.980390 88.505200 4.154160 -70.189800 -5.348130 -0.000001 -0.000004 -63.478200 16.488700 -17.875300 -24.328900 0.000322 -0.000009 -1.493670 -4.574370 -18.093200 -22.291500 -0.000108 -0.000004 10.471400 5.515200 -7.159590 -2.192480 -6.469440 -0.000000 -169.222000 -18.351100 -1.667380 39.081100 -0.000007 -0.000012 -0.207919 0.492154 22.902800 40.985400 -0.000006 -0.000013 -6.710510 -1.856190 -65.209900 11.754300 -0.000000 0.000003 -0.000153 -0.001478 -16.633700 -2.192510 6.469440 -0.000001 172.706000 21.003200 -178.481000 -39.081100 -0.002282 -0.040193 -0.077570 0.244568 18.302400 -40.985400 0.000008 0.000006 -5.715950 3.311850 -63.272100 -11.754300 -0.000006 -0.000006 -0.002755 -0.037798 -18.110200
0.000000 0.000000 0.000000 0.000000 0.000000 -0.000000 -0.371116 91.915100 2.702280 87.871900 -1.810330 3.664350 15.735700 0.000005 -0.000001 80.981600 85.677900 -80.477000 8.984550 -0.406207 -0.000000 0.777947 -1.385260 1.017790 16.377300 -0.000001 -0.000001 2.747900 -0.894505 0.041836 6.456720 -0.000001 -0.000000 4.595300 0.060376 -0.623386 12.994200 -0.242716 4.980390 -89.412600 -1.603320 -69.874800 5.348090 -0.000007 -0.000001 -60.779700 14.096000 -18.974600 24.328600 0.000019 0.000005 2.385720 5.954160 -21.881500 22.291600 -0.000001 0.000005 8.331920 5.580200 -10.223100 12.994500 -0.242716 -4.980390 88.689100 3.565850 -69.799900 -5.348130 -0.000001 -0.000004 -61.348100 10.795500 -20.483100 -24.328900 0.000322 -0.000009 -1.389590 -4.650010 -16.647100 -22.291500 -0.000108 -0.000004 11.019400 5.500440 -6.551830 -2.192480 -6.469440 -0.000000 -169.280000 -18.339600 -1.782300 39.081100 -0.000007 -0.000012 -0.204582 0.485714 22.841000 40.985400 -0.000006 -0.000013 -6.691050 -1.929730 -65.116200 11.754300 -0.000000 0.000003 -0.000153 -0.001476 -16.633600 -2.192510 6.469440 -0.000001 172.776000 20.956600 -178.596000 -39.081100 -0.002282 -0.040193 -0.073959 0.234517 18.239300 -40.985400 0.000008 0.000006 -5.626310 3.278640 -63.190100 -11.754300 -0.000006 -0.000006 -0.002822 -0.038566 -18.141500
